<svg aria-hidden="true" style="width:0;height:0;position:absolute;overflow:hidden" xmlns="http://www.w3.org/2000/svg"><defs><symbol id="icon-logo" viewBox="0 0 39 32"><path d="m22.371 9.64-.749-.571a.57.57 0 0 0-.8.079l-.001.001-10.36 11.897.16.177 2.566-2.366a.395.395 0 0 1 .147-.76h.007c.174 0 .321.114.371.272l.001.003 3.383-3.137a.291.291 0 0 1 .366 0h-.001l.171.126a.285.285 0 0 0 .382-.046l4.423-4.96a.473.473 0 0 0-.067-.714l-.001-.001z"/><path d="M27.24 12.989a22.87 22.87 0 0 1-7.335 3.477l-.162.037c-2.401.638-5.193 1.072-8.063 1.208l-.092.003c.055.406.155.805.297 1.189 1.554 1.406 13.257-.994 15.543-3.771.486-.577-.189-2.143-.189-2.143zm-13.897 5.868a.389.389 0 1 1 .389-.389v.006a.383.383 0 0 1-.383.383h-.006zM2.286 12.166l.091-.394 1.486.337c.123.226.198.475.223.731a2.43 2.43 0 0 1-.051.811 2.157 2.157 0 0 1-.493.997l.002-.002a1.97 1.97 0 0 1-.866.568l-.014.004a2.109 2.109 0 0 1-1.095.038l.014.003a2.001 2.001 0 0 1-.955-.504l.001.001a1.883 1.883 0 0 1-.54-.884l-.003-.013a2.15 2.15 0 0 1 .004-1.158l-.004.015c.062-.28.171-.547.326-.789.147-.22.339-.399.563-.527l.008-.004.206.314a1.64 1.64 0 0 0-.753 1.099l-.002.01a1.792 1.792 0 0 0 .02.91l-.003-.013c.077.278.229.529.44.726.217.21.488.354.783.417.286.08.589.08.874 0 .274-.09.52-.25.714-.463.2-.23.337-.507.4-.806a1.755 1.755 0 0 0-.073-1.103l.004.012-1.309-.331zM5.52 8.571l-1.331 1.777.571 1.023-.263.354-2.114-3.857.246-.337 4.303.926-.269.354-1.143-.24zm-.377-.091-2.286-.514L4 10.017 5.143 8.48zm0-3.594.343-.257 2.177 2.914L9.457 6.2l.217.291-2.131 1.594-2.4-3.2zm3.6-2.383.383-.171 1.509 3.303 2.04-.926.149.331-2.423 1.103-1.657-3.64zm7.531 1.314.086.36-2.754.646-.914-3.897 2.674-.623.08.354-2.286.531.326 1.383 2.011-.474.086.354-2.017.469.343 1.446 2.366-.549zm3.926.143-.954-1.257a2.847 2.847 0 0 1-.32 0l-1.074.034.04 1.269h-.423l-.131-4L18.858 0a1.8 1.8 0 0 1 1.217.329L20.07.325c.287.232.469.585.469.979v.016-.001c.017.282-.057.563-.211.8a1.34 1.34 0 0 1-.653.483l-.009.003 1 1.337-.463.017zm-.4-1.88a.909.909 0 0 0 .291-.752v.004-.019a.92.92 0 0 0-.336-.711l-.002-.001a1.373 1.373 0 0 0-.902-.234h.005l-1.086.04.069 2 1.063-.034a1.36 1.36 0 0 0 .9-.294l-.003.002zm3.423.817-.206 1.366L22.6 4.2l.211-1.343L21.628 0l.446.069 1.011 2.434L24.799.486l.4.086-1.977 2.326zm5.651-.24.497.646-.217.171-.497-.663-.314.749-.24-.103.32-.749-.823.109v-.274l.811-.091-.503-.646.223-.171.44.651.309-.754.246.103-.291.766.823-.114v.28l-.783.091zm1.909 4.606a1.565 1.565 0 0 1-.245-.684l-.001-.007.337-.149c.026.226.099.445.217.64.128.219.294.413.491.571.197.189.452.318.736.359l.007.001a.62.62 0 0 0 .536-.221l.001-.001a.51.51 0 0 0 .133-.345l-.002-.045v.002a1.054 1.054 0 0 0-.14-.399l.003.005a5.935 5.935 0 0 0-.359-.523l.01.014a4.995 4.995 0 0 1-.398-.603l-.013-.026a1.133 1.133 0 0 1-.149-.536v-.001a.84.84 0 0 1 .223-.571c.123-.148.283-.261.467-.324l.007-.002a1.125 1.125 0 0 1 .642.002l-.008-.002c.28.093.522.234.728.414l-.002-.002c.176.146.331.315.463.503.122.174.213.367.269.571l-.326.171a2.006 2.006 0 0 0-.256-.544l.005.007a2.068 2.068 0 0 0-.379-.391l-.004-.003a1.265 1.265 0 0 0-.731-.348l-.006-.001a.616.616 0 0 0-.536.233l-.001.001a.49.49 0 0 0-.131.39v-.002a.947.947 0 0 0 .137.406c.08.131.194.303.349.509.153.194.291.401.411.617.091.154.148.338.154.535v.002a.835.835 0 0 1-.223.571 1.02 1.02 0 0 1-.473.324l-.007.002a1.093 1.093 0 0 1-.642-.002l.008.002a2.115 2.115 0 0 1-.734-.414l.003.002a2.626 2.626 0 0 1-.565-.695l-.007-.013zm5.748.834-.806-1.143.297-.211 1.857 2.651-.297.211-.806-1.143-2.983 2.086-.24-.349 2.977-2.103zm-1.28 4.697a1.91 1.91 0 0 1 .569-.89l.002-.002c.256-.23.573-.396.924-.472l.013-.002a2.086 2.086 0 0 1 1.089.044l-.015-.004c.348.117.642.314.873.57l.002.002c.238.272.409.609.483.981l.002.014a2.167 2.167 0 0 1-.004 1.118l.004-.015a1.975 1.975 0 0 1-.569.89l-.002.002a2.111 2.111 0 0 1-2.055.441l.015.004a1.912 1.912 0 0 1-.872-.569l-.002-.002a2.137 2.137 0 0 1-.483-.975l-.002-.014a2.221 2.221 0 0 1 .032-1.136l-.004.016zM36 14.611a1.575 1.575 0 0 0 1.207.533c.446 0 .854-.165 1.166-.438l-.002.002c.211-.194.367-.44.451-.714a1.835 1.835 0 0 0-.374-1.683l.002.003a1.63 1.63 0 0 0-.726-.46l-.012-.003a1.697 1.697 0 0 0-.892.003l.012-.003c-.303.06-.568.199-.778.395l.001-.001a1.594 1.594 0 0 0-.448.709l-.003.011a1.705 1.705 0 0 0 .003.898l-.003-.012c.067.296.205.553.395.761l-.001-.001zm-1.183 4.818 1.48-.571c0-.103.034-.206.063-.314l.28-1.034-1.211-.314.109-.406 3.863 1.034-.389 1.446c-.092.435-.33.803-.659 1.06l-.004.003a1.224 1.224 0 0 1-1.094.158l.009.003a1.242 1.242 0 0 1-.977-1.205l-1.577.571.109-.429zm1.914.16a1.03 1.03 0 0 0 1.439.38l-.004.003c.246-.199.421-.478.484-.797l.001-.009.274-1.029-1.937-.52-.274 1.029a1.366 1.366 0 0 0 .02.952l-.003-.009zm-3.965 3.52-.291-.223 1.714-2.257 3.189 2.417-1.657 2.189-.291-.223 1.4-1.846-1.143-.863-1.251 1.651-.286-.217 1.28-1.651-1.183-.897-1.48 1.92zm-1.337 4.554-.817.046v-.274l.817-.006-.44-.68.223-.143.434.686.354-.766.246.131-.389.72.817-.046v.28h-.829l.44.68-.223.143-.434-.686-.377.743-.24-.137.417-.691zM24 27.206l.691.383a1.784 1.784 0 0 1 1.131-.9l.012-.003a1.77 1.77 0 0 1 .71-.074l-.007-.001c.216.017.411.092.575.208l-.003-.002a.888.888 0 0 1 .32.457c.069.226.057.469-.034.686-.151.307-.342.57-.571.794.189.101.363.226.52.371a.972.972 0 0 1 .234.394.76.76 0 0 1-.15.67l.001-.001a1.1 1.1 0 0 1-.632.438l-.008.002a.996.996 0 0 1-.709 0 .716.716 0 0 1-.41-.481l-.001-.005a.78.78 0 0 1 .042-.576l-.002.005c.131-.26.303-.497.509-.703l-1.377-.766a2.655 2.655 0 0 0-.033.829l-.001-.012h-.349a2.757 2.757 0 0 1 .119-1.013l-.005.019-.72-.4.149-.32zm.994.571 1.514.84c.198-.19.363-.411.486-.657a.723.723 0 0 0 0-.514.618.618 0 0 0-.396-.427l-.004-.001a1.123 1.123 0 0 0-.74.003l.008-.002a1.376 1.376 0 0 0-.888.735l-.004.008.023.017zm2.149 2.286a.509.509 0 0 0 .045-.427l.001.004a.703.703 0 0 0-.183-.297 2.479 2.479 0 0 0-.46-.308l-.014-.006a2.999 2.999 0 0 0-.444.559l-.007.013a.566.566 0 0 0-.045.426l-.001-.004a.483.483 0 0 0 .249.302l.003.001a.637.637 0 0 0 .451 0 .68.68 0 0 0 .381-.266l.001-.002.023.006zm-10.109 1.548.08-4h.406l-.063 3.2 1.623-2.663h.2l1.52 2.709.057-3.183h.406l-.074 4h-.349l-1.68-2.989-1.777 2.931-.349-.006zm-1.988-4.182a1.943 1.943 0 0 1 .516 1.991l.004-.014c-.1.367-.289.682-.543.931a1.91 1.91 0 0 1-.907.5l-.013.003a2.189 2.189 0 0 1-1.124-.039l.016.004a2.15 2.15 0 0 1-.961-.521l.001.001a1.918 1.918 0 0 1-.528-.889l-.003-.013a2.1 2.1 0 0 1 .572-2.011c.242-.242.548-.421.889-.511l.014-.003a2.168 2.168 0 0 1 1.118.039l-.016-.004c.378.098.704.285.966.538l-.001-.001zm-1.949-.2a1.523 1.523 0 0 0-.737.411 1.652 1.652 0 0 0-.432.748l-.003.012c-.08.286-.08.589 0 .874.067.278.212.531.417.731.209.204.469.357.759.437l.012.003a1.796 1.796 0 0 0 .898-.003l-.012.003a1.63 1.63 0 0 0 .743-.411 1.68 1.68 0 0 0 .432-.748l.003-.012a1.645 1.645 0 0 0-.003-.892l.003.012a1.613 1.613 0 0 0-.423-.731 1.718 1.718 0 0 0-.765-.432l-.012-.003a1.645 1.645 0 0 0-.892.003l.012-.003zm-4.326-2.658.154 1.571c.098.042.193.09.286.143l.931.537.629-1.109.371.211-2 3.446-1.303-.749a1.826 1.826 0 0 1-.853-.903l-.005-.012a1.256 1.256 0 0 1 .128-1.091l-.003.005c.133-.25.343-.451.6-.571a1.299 1.299 0 0 1 .832-.061l-.009-.002-.166-1.68.406.263zm-.651 1.806a1.033 1.033 0 0 0-.771.871v.005a1.034 1.034 0 0 0 .036.417l-.002-.007c.134.296.366.536.657.68l.92.531 1-1.714-.92-.531a1.401 1.401 0 0 0-.923-.28h.004v.029zm-2.731-4.486.257-.257 1.971 2.029-2.857 2.789-1.903-1.966.263-.257 1.617 1.663.977-.989-1.417-1.474.274-.263 1.446 1.486 1.063-1.034-1.691-1.726zm-4.246-2.245.137-.789.269.04-.154.811.76-.28.091.251-.771.263.634.537-.183.206-.611-.571-.143.811-.274-.051.16-.811-.766.274-.086-.223.766-.269-.634-.531.189-.206.617.537z"/></symbol><symbol id="icon-arrow-down" viewBox="0 0 32 32"><path d="m16 31 15-15h-9V0H10v16H1z"/></symbol></defs></svg>